<?xml version="1.0" encoding="UTF-8"?>
<!-- Generator: Adobe Illustrator 25.2.1, SVG Export Plug-In . SVG Version: 6.00 Build 0)  -->
<svg version="1.1" id="Слой_1" xmlns="http://www.w3.org/2000/svg" xmlns:xlink="http://www.w3.org/1999/xlink" x="0px" y="0px" viewBox="0 0 1440 320" style="enable-background:new 0 0 1440 320;" xml:space="preserve">
<style type="text/css">
	.st0{fill:#6018A7;}
</style>
<path class="st0" d="M0,320l30-32c30-32,90-96,150-112s120,16,180,5.3c60-10.3,120-64.3,180-74.6C600,96,660,128,720,144  s120,16,180,26.7c60,10.3,120,32.3,180,32c60,0.3,120-21.7,180-10.7s120,53,150,74.7l30,21.3V0h-30c-30,0-90,0-150,0s-120,0-180,0  S960,0,900,0S780,0,720,0S600,0,540,0S420,0,360,0S240,0,180,0S60,0,30,0H0V320z"/>
</svg>