<svg width="1920" height="288" viewBox="0 0 1920 288" fill="none" xmlns="http://www.w3.org/2000/svg">
<path d="M0 64L40 74.7C80 85 160 107 240 117.3C320 128 400 128 480 149.3C560 171 640 213 720 202.7C800 192 880 128 960 112C1040 96 1120 128 1200 149.3C1280 171 1360 181 1440 186.7C1520 192 1600 192 1680 160C1760 128 1840 64 1880 32L1920 0V288H1880C1840 288 1760 288 1680 288C1600 288 1520 288 1440 288C1360 288 1280 288 1200 288C1120 288 1040 288 960 288C880 288 800 288 720 288C640 288 560 288 480 288C400 288 320 288 240 288C160 288 80 288 40 288H0V64Z" fill="#232426"/>
</svg>
