<svg xmlns="http://www.w3.org/2000/svg" width="283.46" height="283.46" viewBox="0 0 283.46 283.46"><path fill="#ED3F24" d="M237.74 211.196c-44.426 53.154-79.127 75.715-133.202 51.396C41.358 234.18-4.132 141.837 36.43 83.03 75.768 26.003 145.226-2.35 202.274 39.933c55.657 41.252 84.858 112.164 35.467 171.263z"/><path fill="#FFCB06" d="M125.733 180.088c.715 8.273-1.328 15.013-6.134 20.22-2.534 2.743-7.38 6.146-14.534 10.21-3.26 1.176-6.684 2.063-10.273 2.674-10.542 1.793-18.503.88-23.89-2.754-1.362-1.23-3.85-12.475-7.468-33.734-4.29-25.227-6.052-39.18-5.272-41.852 4.465-5.38 11.972-8.97 22.512-10.764 3.063-.52 5.41-.762 7.03-.73 8.488.172 15.132 2.142 19.925 5.91 4.795 3.768 7.89 9.076 9.288 15.923.085 4.147-.997 7.72-3.256 10.723-1.004 1.328 8.797 2.135 5.268 4.89 5.01.075-2.77 3.122.794 6.672 3.565 3.552 5.57 7.757 6.01 12.613zM95.01 184.62l.018.11c.23-1.81.243-3.312.04-4.513-.587-3.442-2.037-4.967-4.355-4.572-1.27.216-2.42.912-3.45 2.09.238.96 1.228 12.885 1.697 14.728 2.192-.68 3.765-1.835 4.72-3.46.406-.76.85-2.223 1.33-4.383zm-4.346-38.427l-.092.13c-.707-1.883-2.515-2.577-5.43-2.08-.972.164-1.518.334-1.643.508-.512.168-.917.737-1.21 1.71 1.274 4.33 2.155 9.265 2.633 14.804 0 0 3.57-2.755 4.398-3.982 2.552-3.78 2.2-7.422 1.856-9.44-.064-.38-.234-.927-.512-1.65z"/><path fill="#FFF" d="M211.314 135.982c-5.098-4.57-12.967-6.29-18.9-6.29-1.334 0-2.598.112-3.78.333-13.204 2.45-21.843 13.37-25.92 32.752-.894 4.232-1.34 8.84-1.34 13.813 0 10.846 2.782 20.05 8.35 27.627 6.52 8.91 15.688 13.81 27.474 13.367 26.53-.992 30.035-33.195 30.035-38.988 0-6.832.406-27.983-15.92-42.614zm-13.558 19.256c-1.588 5.768-7.55 9.154-13.314 7.566-5.768-1.588-9.156-7.547-7.57-13.314 1.588-5.766 7.55-9.156 13.318-7.568 5.763 1.588 9.152 7.55 7.566 13.316z"/><path fill="#FFF" d="M161.105 130.908c-5.127-4.764-10.926-7.22-16.96-7.852-1.357-.143-2.652-.16-3.882-.063-13.686 1.082-23.637 11.264-29.852 30.537-1.353 4.21-2.3 8.848-2.83 13.904-1.157 11.027.688 20.686 5.538 28.982 5.684 9.758 14.52 15.268 26.512 16.525 6.487.683 12.383-.49 17.698-3.524 5.31-3.027 9.268-7.502 11.873-13.414l-.103-.123-.115-.013c2.95-7.02 4.732-13.477 5.35-19.365.73-6.945 4.158-29.45-13.227-45.594zm-6.96 30.285c-5.98 0-10.83-4.848-10.83-10.83 0-5.98 4.85-10.83 10.83-10.83s10.83 4.852 10.83 10.83c.002 5.983-4.848 10.83-10.83 10.83zM122.87 117.95c.823.13 1.706-.048 2.645-.534.934-.49 1.592-1.094 1.977-1.81.836-1.528 1.307-3.618 1.416-6.265.1-2.392-.09-4.82-.57-7.302 1.98 6.402 3.645 10.846 5 13.35 2.006-.398 3.928-.605 5.713-.672 1.35-.05 2.74-.002 4.142.14 1.418-2.792 2.258-7.317 2.516-13.58.135-3.27.12-6.755-.045-10.456l-.002.047c-.103-2.266-.218-3.764-.343-4.506-.63-3.458-2.5-5.257-5.606-5.386-1.765-.072-3.145.46-4.16 1.598-.874.982-1.345 2.248-1.407 3.81-.055 1.302.055 3.356.316 6.17.16 1.6.36 3.452.593 5.565-.533-2.727-1.123-5.092-1.773-7.09-1.6-4.967-3.305-7.986-5.12-9.045-.698-.256-1.395-.395-2.097-.422-1.32-.055-2.523.277-3.61.994-1.882 1.266-3.124 2.916-3.722 4.963-.788 2.738-1.343 8.14-1.675 16.186-.17 4.137.016 7.205.582 9.2.833 3.005 2.58 4.687 5.232 5.046zM157.93 119.31c.26-1.112.422-2.37.467-3.806.072-2.39-.14-4.818-.64-7.293 3.017 9.415 5.308 14.593 6.886 15.534 1.275.355 2.307.543 3.11.568.67.02 1.27-.05 1.79-.227 3.404-1.135 5.26-6.744 5.572-16.816.102-3.276.053-6.76-.152-10.46l-.002.047c-.126-2.264-.255-3.76-.392-4.5-.664-3.455-2.55-5.232-5.662-5.33-1.764-.053-3.143.494-4.143 1.643-.865.99-1.32 2.26-1.37 3.822-.038 1.303.09 3.357.386 6.168.175 1.598.394 3.445.65 5.557-.562-2.72-1.18-5.08-1.85-7.07-1.647-4.95-3.384-7.95-5.216-8.99-.697-.25-1.402-.38-2.102-.402-1.318-.04-2.518.305-3.6 1.033-1.865 1.283-3.096 2.947-3.666 5.002-.76 2.744-1.264 8.152-1.514 16.2-.06 2.01-.037 3.76.068 5.263 4.048.73 7.848 2.087 11.38 4.056zM186.3 121.19c1.714-.325 3.534-.493 5.4-.497 1.155-.004 3.25.062 5.84.417.065-.442.09-.88.038-1.318-.127-1.2-.86-2.062-2.174-2.563-.836-.352-1.906-.35-3.225.008-.673-.385-1.017-.955-1.017-1.72.287-1.655.395-2.675.33-3.054.705-.064 1.188-.05 1.447.047 1.44.158 2.785-.308 4.03-1.395 1.382-1.146 2.067-2.565 2.062-4.253.033-.505-.02-1.002-.15-1.476-1.096-1.496-2.46-2.237-4.092-2.233-1.412.004-2.584.374-3.512 1.107-.576-.126-.916-.41-1.014-.85.03-.19.08-.944.14-2.27.026-1.037.153-1.792.378-2.27l1.057-.005c1.83-.005 3.26-.437 4.276-1.3 1.03-.86 1.537-1.974 1.535-3.344 0-.63-.1-1.21-.294-1.714-.45-1.24-1.924-1.854-4.428-1.85-1.258.004-2.57.15-3.947.44l-8.03.83c-1.316.9-2.178 2.84-2.584 5.827-.69 5.158-1.018 9.735-.977 13.748.04 5.497.48 9.492 1.312 11.995 2.394-1.024 4.925-1.8 7.6-2.305zM199.867 119.276c-.045.886-.037 1.67.025 2.364 3.123.84 6.627 2.155 9.965 4.216.234-.12.475-.23.71-.376 1.028-1.082 1.585-2.593 1.69-4.54.03-.596.02-1.306-.03-2.123 2.544 5.927 5.183 8.825 7.92 8.678 1.42-.082 2.853-.71 4.292-1.872 1.106-.928 1.913-1.86 2.41-2.788l.05.004c.088-.38.133-.664.14-.855.142-2.603-1.503-5.94-4.917-10.008 1.678-1.313 2.637-2.107 2.873-2.378 1.508-1.704 2.34-3.872 2.516-6.507.172-2.573-.36-5.434-1.574-8.59-1.664-3.17-4.938-4.97-9.83-5.39-4.156.2-6.947.46-8.375.795-3.03.734-4.814 2.27-5.354 4.625-.724 3.27-1.347 8.05-1.868 14.344-.455 5.565-.643 8.4-.545 8.502l-.1 1.896zm12.465-18.894c.875-.405 1.38-.6 1.508-.593.125.008.28.045.467.118l.05.004c1.42 1.38 2.1 2.66 2.038 3.838-.045.854-.506 1.647-1.393 2.383-.873.736-1.932 1.28-3.158 1.625.082-1.557.154-3.21.215-4.952.044-1.498.14-2.304.272-2.424zM79.442 114.846c1.27-.17 2.535-.302 3.795-.413 1.03-1.825 1.497-3.988 1.372-6.507-.11-2.117-.92-3.976-2.424-5.57-1.51-1.598-3.362-2.452-5.555-2.557 1.59-1.148 2.615-2.004 3.084-2.566 1.04-1.267 1.574-2.804 1.604-4.608-.497-2.998-1.77-5.348-3.81-7.064-2.043-1.71-4.923-2.672-8.644-2.872-.715-.04-1.748.03-3.1.21-4.655.62-8.007 2.067-10.056 4.34-.39 1.145.153 7.242 1.618 18.266 1.084 8.16 1.92 12.947 2.494 14.376 6.076-2.378 12.662-4.11 19.622-5.036zm-12.78-22.92c.057-.074.3-.145.726-.2 1.29-.172 2.072.157 2.35.987l.044-.055c.11.322.173.56.195.727.117.883-.205 2.242-.966 4.073l-2 1.666c-.12-2.415-.42-4.57-.91-6.478.147-.42.338-.657.562-.72zm1.27 16.77c-.018-1.163-.074-1.957-.165-2.374.474-.5.987-.783 1.55-.858 1.023-.136 1.634.55 1.835 2.058.07.522.04 1.173-.093 1.955l-.006-.043c-.246.928-.465 1.556-.656 1.885-.444.69-1.153 1.168-2.126 1.432-.177-.81-.275-1.315-.3-1.51-.042-.296-.055-1.15-.04-2.547zM97.794 116.756c.37-.988.564-1.956.564-2.896-.06-.594-.13-1.04-.197-1.336 1.702-.2 3.218-.266 4.55-.2 0 1.355.213 2.464.646 3.32.137.296.57.92 1.3 1.88 1.034.762 2.366 1.143 3.995 1.143.903 0 1.77-.102 2.6-.297 1.667-.396 2.65-1.393 2.952-2.973v-.05c.53-2.737.795-5.66.795-8.765 0-5.285-.912-11.41-2.75-18.38-.496-1.946-1.346-3.645-2.545-5.1-2.033-2.478-5.045-3.714-9.04-3.714-3.733 0-6.577 1.27-8.542 3.81-2.533 3.304-4.3 7.036-5.3 11.198-.696 2.938-1.18 6.998-1.448 12.186-.068 1.348-.098 2.21-.098 2.572 0 2.08.202 3.866.605 5.36 4.087.647 8.063 1.397 11.914 2.242zm1.27-19.834c.193-1.75.514-4.03.945-6.84.47-.393.817-.48 1.052-.246.566 5.682.73 9.855.498 12.533-.1 0-.422.06-.973.173-.547.117-.896.172-1.027.172-.396 0-.678-.18-.848-.545-.1-.43.02-2.18.352-5.248z"/></svg>